<svg width="749" height="900" viewBox="0 0 749 900" fill="none" xmlns="http://www.w3.org/2000/svg">
<g filter="url(#filter0_d_1370_677)">
<rect x="40.873" y="15.209" width="669.539" height="820.516" rx="40" transform="rotate(0.186043 40.873 15.209)" fill="#F7F7F7"/>
<rect x="84.209" y="65.748" width="578.6" height="605.181" rx="8" transform="rotate(0.186043 84.209 65.748)" fill="#111111"/>
<path d="M316.688 715.746C316.773 718.818 316.474 721.804 315.79 724.706C315.107 727.607 314.168 730.466 312.973 733.282C311.009 738.062 308.363 742.371 305.034 746.212C301.791 749.968 298.121 753.382 294.024 756.455C291.805 758.076 289.543 759.57 287.239 760.936C285.02 762.302 282.673 763.454 280.198 764.394C279.43 764.65 279.046 765.29 279.046 766.314C279.045 769.045 279.002 771.263 278.917 772.97C278.916 774.677 278.873 776.383 278.788 778.09C278.787 779.797 278.787 782.015 278.786 784.746C278.957 785.514 279.085 786.282 279.17 787.05C279.34 787.818 279.34 788.586 279.169 789.354C279.169 792.085 278.144 793.535 276.096 793.707C275.158 793.792 274.219 793.494 273.281 792.811C272.427 792.214 271.83 791.361 271.489 790.252C271.063 788.716 270.679 787.18 270.338 785.644C269.997 784.023 269.699 782.444 269.443 780.908C269.102 778.86 268.804 777.367 268.548 776.428C268.377 775.49 268.207 774.551 268.036 773.612C267.866 772.588 267.696 771.095 267.525 769.132L267.526 767.596C267.611 766.743 267.569 765.975 267.398 765.292C267.313 764.524 266.972 763.757 266.375 762.989C264.498 761.026 264.669 759.192 266.888 757.485C267.315 757.143 267.528 756.844 267.528 756.588C267.613 756.332 267.656 756.034 267.656 755.692C267.913 750.658 268.042 745.751 268.043 740.972C268.215 737.218 268.386 733.506 268.557 729.836C268.729 726.081 268.9 722.369 269.072 718.7C269.158 716.225 269.414 713.836 269.841 711.532C270.268 709.142 270.653 706.796 270.995 704.492C271.08 704.15 271.165 703.852 271.251 703.596C271.336 703.34 271.294 703.041 271.123 702.7C270.953 701.164 271.209 699.841 271.892 698.731C272.66 697.622 273.556 696.64 274.58 695.787C278.762 692.373 283.584 690.281 289.046 689.512C290.752 689.17 292.416 689.127 294.038 689.383C295.744 689.638 297.408 690.107 299.029 690.79C308.842 694.201 314.729 701.111 316.689 711.522C316.774 712.204 316.774 712.887 316.689 713.57C316.689 714.252 316.688 714.978 316.688 715.746ZM280.206 725.61C280.035 729.535 279.863 732.906 279.692 735.722C279.606 738.538 279.52 741.226 279.435 743.786C279.434 745.066 279.434 746.303 279.434 747.498C279.434 748.692 279.348 749.887 279.177 751.082C279.177 751.253 279.177 751.509 279.177 751.85C279.262 752.106 279.39 752.319 279.561 752.49C279.902 752.575 280.158 752.532 280.329 752.362C280.585 752.191 280.798 752.02 280.969 751.849C282.164 750.996 283.316 750.142 284.425 749.289C285.62 748.435 286.772 747.582 287.882 746.728C289.845 745.362 291.637 743.868 293.259 742.247C294.881 740.54 296.417 738.747 297.868 736.87C299.49 734.736 300.856 732.432 301.965 729.957C303.075 727.482 303.929 724.922 304.527 722.276C305.21 720.228 305.552 718.265 305.552 716.388C305.552 715.193 305.467 714.084 305.297 713.06C305.126 711.951 304.828 710.884 304.402 709.86C303.207 707.045 301.416 704.869 299.027 703.334C296.638 701.713 293.95 700.86 290.963 700.775C287.977 700.691 284.947 701.587 281.875 703.465C281.021 704.063 280.637 704.831 280.722 705.77L280.722 709.226C280.892 712.383 280.848 715.455 280.592 718.442C280.42 721.343 280.292 723.732 280.206 725.61ZM352.992 763.61C352.563 771.973 349.49 779.781 343.771 787.036C342.746 788.401 341.552 789.596 340.186 790.621C338.82 791.56 337.284 792.285 335.578 792.798C332.249 793.566 329.049 793.183 325.978 791.648C324.869 790.965 323.802 790.155 322.778 789.216C321.754 788.193 320.901 787.126 320.219 786.017C318.001 782.519 316.508 778.935 315.741 775.266C314.974 771.511 314.719 767.671 314.975 763.746C315.318 760.247 316.086 756.919 317.282 753.762C318.477 750.519 320.227 747.574 322.531 744.928C324.494 742.795 326.841 741.471 329.572 740.959C330.852 740.617 332.004 740.617 333.028 740.958C334.052 741.214 335.033 741.726 335.972 742.493C336.228 742.749 336.526 742.92 336.868 743.005C337.209 743.005 337.593 743.005 338.02 743.005C340.324 742.749 342.372 743.089 344.164 744.028C346.041 744.966 347.662 746.374 349.027 748.251C350.562 750.384 351.586 752.687 352.097 755.162C352.694 757.551 352.992 760.367 352.992 763.61ZM334.817 754.014C333.879 754.014 332.897 754.142 331.873 754.398C331.02 754.399 330.38 754.612 329.953 755.039C329.527 755.466 329.142 756.063 328.801 756.831C327.606 759.989 326.965 763.146 326.879 766.303C326.878 769.461 327.347 772.661 328.285 775.903C328.797 777.268 329.607 778.676 330.716 780.127C331.313 780.724 331.74 781.065 331.996 781.15C332.337 781.15 332.807 780.851 333.404 780.254C334.172 779.486 334.898 778.718 335.581 777.95C336.349 777.096 336.989 776.2 337.501 775.261C337.928 774.237 338.355 773.17 338.782 772.061C339.294 770.951 339.678 769.842 339.934 768.733C340.361 767.111 340.703 765.49 340.959 763.868C341.216 762.162 341.131 760.455 340.705 758.748C340.278 756.957 339.638 755.719 338.785 755.037C337.932 754.354 336.609 754.013 334.817 754.014ZM374.751 779.733C374.751 780.928 374.793 782.165 374.878 783.445C374.964 784.725 374.921 786.048 374.75 787.413C374.75 787.754 374.749 788.181 374.749 788.693C374.749 789.12 374.707 789.589 374.621 790.101C374.365 791.808 373.469 792.832 371.932 793.174C370.226 793.259 368.861 792.748 367.837 791.639C367.24 790.956 366.77 790.188 366.429 789.335C366.173 788.482 365.875 787.628 365.534 786.775C365.193 785.239 364.894 783.703 364.639 782.167C364.468 780.631 364.341 779.095 364.256 777.559C363.745 772.866 363.404 768.173 363.235 763.48C363.15 758.786 363.023 754.093 362.853 749.4C362.769 742.658 362.685 735.96 362.602 729.304C362.603 722.648 362.647 715.949 362.734 709.208C362.734 708.61 362.734 708.056 362.734 707.544C362.819 706.946 362.948 706.349 363.118 705.752C363.545 704.557 364.228 703.575 365.167 702.807C366.106 701.954 367.215 701.527 368.495 701.526C371.141 701.526 372.847 702.933 373.614 705.749C373.87 706.517 373.998 707.285 373.998 708.053C374.338 713.6 374.55 719.146 374.634 724.693C374.804 730.24 374.931 735.786 375.015 741.333C375.015 741.93 375.015 743.338 375.014 745.557C375.014 747.776 375.013 750.421 375.013 753.493C375.012 756.48 374.969 759.637 374.883 762.965C374.882 766.293 374.881 769.45 374.881 772.437C374.88 775.338 374.837 777.77 374.751 779.733ZM412.372 773.325C411.603 774.434 410.878 775.501 410.195 776.525C409.597 777.549 408.914 778.531 408.146 779.47C407.207 780.579 406.183 781.603 405.074 782.542C404.049 783.481 402.855 784.25 401.489 784.847C398.246 786.043 395.345 785.744 392.785 783.953C391.676 783.185 390.738 782.247 389.97 781.138C389.287 780.028 388.648 778.834 388.051 777.554C386.942 775.165 386.089 772.691 385.492 770.131C384.981 767.485 384.683 764.84 384.598 762.195C384.598 760.232 384.641 758.227 384.727 756.179C384.898 754.131 385.283 752.168 385.88 750.291C386.222 748.925 386.862 747.645 387.801 746.45C388.313 746.023 388.868 745.682 389.465 745.426C390.148 745.17 390.873 745.127 391.641 745.297C393.007 745.638 393.774 746.662 393.945 748.369C394.115 749.478 394.2 750.63 394.2 751.825C394.2 752.934 394.242 754.086 394.327 755.281C394.327 758.353 394.454 761.382 394.709 764.369C394.965 767.355 395.476 770.342 396.244 773.328C396.414 774.011 396.627 774.779 396.883 775.632C397.139 776.4 397.651 776.869 398.419 777.04C399.187 777.21 399.827 777.04 400.339 776.527C400.851 775.93 401.363 775.375 401.875 774.863C403.07 773.668 404.052 772.388 404.82 771.022C405.674 769.657 406.399 768.206 406.997 766.67C408.107 764.622 408.96 762.531 409.558 760.397C410.241 758.264 410.882 756.13 411.479 753.997C411.65 753.229 411.693 752.461 411.608 751.693C411.608 750.925 411.608 750.157 411.608 749.389C411.609 748.194 411.652 747.042 411.737 745.933C411.823 744.738 411.908 743.586 411.994 742.477C412.25 741.026 412.634 739.874 413.147 739.021C414.256 737.57 415.664 736.887 417.371 736.972C419.078 737.057 420.315 737.91 421.082 739.531C421.68 740.64 422.063 741.792 422.234 742.987C422.404 744.096 422.532 745.248 422.617 746.443C423.043 749.514 423.298 752.629 423.383 755.786C423.468 758.944 423.51 762.101 423.509 765.258C423.508 770.037 423.507 774.901 423.506 779.85C423.505 784.714 423.462 789.536 423.375 794.314C423.289 797.045 423.118 799.776 422.862 802.506C422.605 805.323 422.135 808.096 421.452 810.827C420.939 812.79 420.214 814.624 419.275 816.331C418.421 818.123 417.141 819.745 415.434 821.196C414.324 822.135 413.129 822.775 411.849 823.117C410.569 823.459 409.204 823.373 407.753 822.862C406.217 822.435 405.023 821.625 404.17 820.431C403.402 819.236 402.89 817.956 402.635 816.591C401.867 813.348 401.655 810.191 401.997 807.119C402.167 806.436 402.381 805.754 402.637 805.071C402.893 804.474 403.277 803.961 403.789 803.535C404.045 803.108 404.387 802.767 404.814 802.51C405.326 802.34 405.795 802.34 406.222 802.51C407.416 802.937 408.056 803.662 408.141 804.686C408.141 804.942 408.184 805.24 408.269 805.582C408.354 805.923 408.397 806.264 408.397 806.606C408.396 808.312 408.823 809.891 409.676 811.341C410.188 811.256 410.529 811.043 410.7 810.701C410.871 810.445 410.999 810.146 411.084 809.805C411.511 808.44 411.81 807.074 411.981 805.709C412.237 804.429 412.365 803.106 412.366 801.741C412.537 799.949 412.708 798.114 412.879 796.237C413.05 794.445 413.136 792.653 413.136 790.861C413.051 787.959 413.009 785.058 413.01 782.157C413.01 779.17 412.798 776.226 412.372 773.325Z" fill="black"/>
</g>
<defs>
<filter id="filter0_d_1370_677" x="0.000389099" y="0.000389099" width="748.618" height="899.105" filterUnits="userSpaceOnUse" color-interpolation-filters="sRGB">
<feFlood flood-opacity="0" result="BackgroundImageFix"/>
<feColorMatrix in="SourceAlpha" type="matrix" values="0 0 0 0 0 0 0 0 0 0 0 0 0 0 0 0 0 0 127 0" result="hardAlpha"/>
<feOffset dy="23"/>
<feGaussianBlur stdDeviation="19.2"/>
<feComposite in2="hardAlpha" operator="out"/>
<feColorMatrix type="matrix" values="0 0 0 0 0 0 0 0 0 0 0 0 0 0 0 0 0 0 0.5 0"/>
<feBlend mode="normal" in2="BackgroundImageFix" result="effect1_dropShadow_1370_677"/>
<feBlend mode="normal" in="SourceGraphic" in2="effect1_dropShadow_1370_677" result="shape"/>
</filter>
</defs>
</svg>
